<svg width="26" height="26" viewBox="0 0 26 26" fill="none" xmlns="http://www.w3.org/2000/svg">
<g id="fi_10970047">
<g id="Group">
<path id="Vector" fill-rule="evenodd" clip-rule="evenodd" d="M12.7584 14.5869C12.0336 14.5869 11.3111 14.3474 10.7065 13.8686L5.84779 9.95128C5.49787 9.66962 5.44371 9.1572 5.72429 8.80837C6.00704 8.46062 6.51837 8.40537 6.86721 8.68595L11.7216 12.5989C12.3316 13.0821 13.1906 13.0821 13.8049 12.5946L18.6106 8.68812C18.9594 8.4032 19.4707 8.45737 19.7546 8.8062C20.0373 9.15395 19.9842 9.66528 19.6365 9.94912L14.8221 13.8621C14.2133 14.3453 13.4853 14.5869 12.7584 14.5869Z" fill="#E1E1E1"/>
<path id="Vector_2" fill-rule="evenodd" clip-rule="evenodd" d="M18.0472 21.6667C18.0493 21.6645 18.058 21.6667 18.0645 21.6667C19.3006 21.6667 20.3969 21.2247 21.2376 20.3851C22.2137 19.4133 22.7499 18.0169 22.7499 16.4537V9.01333C22.7499 5.98758 20.7718 3.79166 18.0472 3.79166H7.411C4.68642 3.79166 2.70825 5.98758 2.70825 9.01333V16.4537C2.70825 18.0169 3.24558 19.4133 4.22058 20.3851C5.06125 21.2247 6.15867 21.6667 7.39367 21.6667H18.0472ZM7.39042 23.2917C5.71883 23.2917 4.226 22.685 3.07334 21.5367C1.78959 20.2562 1.08325 18.4513 1.08325 16.4537V9.01333C1.08325 5.11008 3.8035 2.16666 7.411 2.16666H18.0472C21.6547 2.16666 24.3749 5.11008 24.3749 9.01333V16.4537C24.3749 18.4513 23.6686 20.2562 22.3848 21.5367C21.2333 22.6839 19.7393 23.2917 18.0645 23.2917H7.39042Z" fill="#050B20"/>
</g>
</g>
</svg>
