<svg width="26" height="26" viewBox="0 0 26 26" fill="none" xmlns="http://www.w3.org/2000/svg">
<g id="email 1">
<path id="Vector" d="M20.5833 4.60425H5.41667C3.77325 4.60425 2.4375 5.94 2.4375 7.58341V18.4167C2.4375 20.0602 3.77325 21.3959 5.41667 21.3959H20.5833C22.2268 21.3959 23.5625 20.0602 23.5625 18.4167V7.58341C23.5625 5.94 22.2268 4.60425 20.5833 4.60425ZM20.5833 6.22925C20.6083 6.22925 20.6299 6.24225 20.6538 6.24333L13.8125 11.3751C13.3337 11.7337 12.6653 11.7337 12.1875 11.3751L5.34625 6.24333C5.37117 6.24225 5.39175 6.22925 5.41667 6.22925H20.5833ZM21.9375 18.4167C21.9375 19.1632 21.3298 19.7709 20.5833 19.7709H5.41667C4.67025 19.7709 4.0625 19.1632 4.0625 18.4167V7.58341C4.0625 7.5 4.09608 7.42741 4.11017 7.34833L11.2125 12.6751C11.739 13.0694 12.3695 13.2666 13 13.2666C13.6305 13.2666 14.2621 13.0694 14.7875 12.6751L21.8898 7.34833C21.9039 7.42741 21.9375 7.5 21.9375 7.58341V18.4167Z" fill="white"/>
</g>
</svg>
