<svg width="26" height="26" viewBox="0 0 26 26" fill="none" xmlns="http://www.w3.org/2000/svg">
<g id="jeep (1) 1" clip-path="url(#clip0_120_3293)">
<g id="Group">
<g id="Group_2">
<path id="Vector" d="M25.1522 16.3913H24.3043V12.1522C24.3043 10.7497 23.1633 9.60869 21.7608 9.60869H18.9807L17.8647 6.26083C17.5179 5.22063 16.5482 4.52173 15.4517 4.52173C15.3197 4.52173 6.15382 4.52173 5.93475 4.52173C4.82945 4.52173 3.8871 5.23058 3.53712 6.21737H2.54348C1.141 6.21737 0 7.35837 0 8.76085V12.1522C0 13.5546 1.141 14.6956 2.54348 14.6956H3.39132V16.3913H2.54348C2.07528 16.3913 1.69564 16.7709 1.69564 17.2391C1.69564 17.7074 2.07523 18.087 2.54348 18.087C3.3375 18.087 4.2903 18.087 5.08696 18.087C5.08696 19.9569 6.60832 21.4783 8.47828 21.4783C10.3483 21.4783 11.8696 19.9569 11.8696 18.087H15.8261C15.8261 19.9569 17.3475 21.4783 19.2175 21.4783C21.0874 21.4783 22.6088 19.9569 22.6088 18.087C23.4057 18.087 24.3588 18.087 25.1523 18.087C25.6205 18.087 26.0001 17.7074 26.0001 17.2391C26.0001 16.7709 25.6204 16.3913 25.1522 16.3913ZM3.39132 13H2.54348C2.07599 13 1.69564 12.6196 1.69564 12.1521V8.76079C1.69564 8.2933 2.07599 7.91295 2.54348 7.91295H3.39132C3.39132 8.45316 3.39132 12.4762 3.39132 13ZM11.8696 6.21737H13.2826H15.4517C15.8172 6.21737 16.1405 6.45035 16.256 6.79703L17.1932 9.60864H11.8696V6.21737ZM5.08696 7.06516C5.08696 6.59767 5.46731 6.21731 5.9348 6.21731H10.1739V9.60864H5.08696V7.06516ZM8.47828 19.7826C7.5433 19.7826 6.78265 19.0219 6.78265 18.0869C6.78265 17.1519 7.5433 16.3913 8.47828 16.3913C9.41327 16.3913 10.1739 17.1519 10.1739 18.0869C10.1739 19.0219 9.41327 19.7826 8.47828 19.7826ZM19.2174 19.7826C18.2824 19.7826 17.5218 19.0219 17.5218 18.0869C17.5218 17.1519 18.2824 16.3913 19.2174 16.3913C20.1524 16.3913 20.913 17.1519 20.913 18.0869C20.913 19.0219 20.1524 19.7826 19.2174 19.7826ZM22.6087 16.3913H22.1525C21.5651 15.3787 20.4699 14.6956 19.2174 14.6956C17.9649 14.6956 16.8697 15.3787 16.2823 16.3913H11.4133C10.826 15.3787 9.73075 14.6956 8.47828 14.6956C7.22582 14.6956 6.13057 15.3787 5.54323 16.3913H5.08701V13.8478V11.3043C6.46958 11.3043 20.8531 11.3043 21.7609 11.3043C22.2284 11.3043 22.6088 11.6847 22.6088 12.1522V16.3913H22.6087Z" fill="#050B20"/>
</g>
</g>
<g id="Group_3">
<g id="Group_4">
<path id="Vector_2" d="M14.4131 13H12.7175C12.2493 13 11.8696 13.3796 11.8696 13.8478C11.8696 14.316 12.2492 14.6957 12.7175 14.6957H14.4131C14.8813 14.6957 15.261 14.3161 15.261 13.8478C15.261 13.3796 14.8814 13 14.4131 13Z" fill="#050B20"/>
</g>
</g>
</g>
<defs>
<clipPath id="clip0_120_3293">
<rect width="26" height="26" fill="white"/>
</clipPath>
</defs>
</svg>
