<svg width="26" height="26" viewBox="0 0 26 26" fill="none" xmlns="http://www.w3.org/2000/svg">
<g id="car (1) 1">
<path id="Vector" d="M23.5216 11.9197L19.0334 11.1712C18.7709 10.745 18.2493 9.97395 17.4907 9.20141C15.9768 7.65959 14.2337 6.8446 12.4499 6.8446H5.14074C3.95347 6.8446 2.85269 7.48653 2.26794 8.51983L0.253805 12.0794C0.250555 12.0851 0.248117 12.0911 0.24502 12.0969C0.0892226 12.3757 0 12.6966 0 13.0381V16.7889C0 17.2096 0.341047 17.5506 0.761719 17.5506H3.2013C3.55936 18.4875 4.472 19.1554 5.53907 19.1554C6.60613 19.1554 7.51877 18.4875 7.87683 17.5506H17.3374C17.6954 18.4875 18.608 19.1554 19.6751 19.1554C20.7422 19.1554 21.6548 18.4875 22.0129 17.5506H25.2383C25.659 17.5506 26 17.2096 26 16.7889V14.7724C26 13.3435 24.9353 12.1192 23.5216 11.9197ZM17.1276 11.1021H11.6404V8.36804H12.4499C14.609 8.36804 16.2395 9.96425 17.1276 11.1021ZM6.55637 8.36804H10.1169V11.1021H6.55637V8.36804ZM3.59384 9.27012C3.89091 8.74514 4.43539 8.40811 5.03293 8.3717V11.1021H2.55719L3.59384 9.27012ZM5.53907 17.632C5.00063 17.632 4.56259 17.2012 4.56259 16.6718C4.56259 16.1423 5.00063 15.7116 5.53907 15.7116C6.0775 15.7116 6.51554 16.1423 6.51554 16.6718C6.51554 17.2012 6.0775 17.632 5.53907 17.632ZM19.6751 17.632C19.1366 17.632 18.6986 17.2012 18.6986 16.6718C18.6986 16.1423 19.1367 15.7116 19.6751 15.7116C20.2135 15.7116 20.6516 16.1423 20.6516 16.6718C20.6516 17.2012 20.2135 17.632 19.6751 17.632ZM22.0891 16.0271C21.8026 14.9693 20.8291 14.1882 19.6751 14.1882C18.521 14.1882 17.5476 14.9693 17.2611 16.0271H7.95305C7.66655 14.9693 6.69312 14.1882 5.53907 14.1882C4.38501 14.1882 3.41159 14.9693 3.12503 16.0271H1.52344V13.0381C1.52344 12.8106 1.70848 12.6255 1.93598 12.6255H18.4929L23.2811 13.4241C23.2884 13.4253 23.2958 13.4264 23.3032 13.4274C23.4327 13.4452 23.556 13.4814 23.6708 13.5327C23.3521 13.6239 23.1186 13.9167 23.1186 14.2646C23.1186 14.6853 23.4596 15.0263 23.8803 15.0263H24.4766V16.0272H22.0891V16.0271Z" fill="#050B20"/>
</g>
</svg>
