<svg width="20" height="20" viewBox="0 0 20 20" fill="none" xmlns="http://www.w3.org/2000/svg">
<g id="smartphone 1">
<path id="Vector" d="M13.3333 1.875H6.66667C5.4025 1.875 4.375 2.9025 4.375 4.16667V15.8333C4.375 17.0975 5.4025 18.125 6.66667 18.125H13.3333C14.5975 18.125 15.625 17.0975 15.625 15.8333V4.16667C15.625 2.9025 14.5975 1.875 13.3333 1.875ZM14.375 15.8333C14.375 16.4075 13.9075 16.875 13.3333 16.875H6.66667C6.0925 16.875 5.625 16.4075 5.625 15.8333V4.16667C5.625 3.5925 6.0925 3.125 6.66667 3.125H13.3333C13.9075 3.125 14.375 3.5925 14.375 4.16667V15.8333ZM11.4583 5C11.4583 5.345 11.1783 5.625 10.8333 5.625H9.16667C8.82167 5.625 8.54167 5.345 8.54167 5C8.54167 4.655 8.82167 4.375 9.16667 4.375H10.8333C11.1783 4.375 11.4583 4.655 11.4583 5Z" fill="white"/>
</g>
</svg>
